<?xml version="1.0" standalone="no"?>
<!DOCTYPE svg PUBLIC "-//W3C//DTD SVG 20010904//EN"
 "http://www.w3.org/TR/2001/REC-SVG-20010904/DTD/svg10.dtd">
<svg version="1.0" xmlns="http://www.w3.org/2000/svg"
 width="1531.000000pt" height="1530.000000pt" viewBox="0 0 1531.000000 1530.000000"
 preserveAspectRatio="xMidYMid meet">
<metadata>
Created by potrace 1.16, written by Peter Selinger 2001-2019
</metadata>
<g transform="translate(0.000000,1530.000000) scale(0.100000,-0.100000)"
fill="#000000" stroke="none">
<path d="M13160 13155 c-1174 -1179 -2900 -2912 -3835 -3851 l-1700 -1707
-3766 3789 c-2072 2084 -3788 3809 -3813 3834 l-46 44 0 -7589 0 -7590 62 -40
61 -39 2540 2549 c1398 1403 3093 3104 3769 3780 l1228 1230 0 -3782 0 -3783
3825 0 3825 0 0 7650 c0 4208 -3 7650 -7 7649 -5 0 -969 -965 -2143 -2144z"/>
</g>
</svg>
